<svg width="30" height="16" viewBox="0 0 30 16" fill="none" xmlns="http://www.w3.org/2000/svg">
<path d="M0 3C0 2.33696 0.395088 1.70107 1.09835 1.23223C1.80161 0.763392 2.75544 0.5 3.75 0.5H26.25C27.2446 0.5 28.1984 0.763392 28.9016 1.23223C29.6049 1.70107 30 2.33696 30 3V4.25H0V3ZM0 6.75V13C0 13.663 0.395088 14.2989 1.09835 14.7678C1.80161 15.2366 2.75544 15.5 3.75 15.5H26.25C27.2446 15.5 28.1984 15.2366 28.9016 14.7678C29.6049 14.2989 30 13.663 30 13V6.75H0ZM5.625 9.25H7.5C7.99728 9.25 8.47419 9.3817 8.82582 9.61612C9.17746 9.85054 9.375 10.1685 9.375 10.5V11.75C9.375 12.0815 9.17746 12.3995 8.82582 12.6339C8.47419 12.8683 7.99728 13 7.5 13H5.625C5.12772 13 4.65081 12.8683 4.29917 12.6339C3.94754 12.3995 3.75 12.0815 3.75 11.75V10.5C3.75 10.1685 3.94754 9.85054 4.29917 9.61612C4.65081 9.3817 5.12772 9.25 5.625 9.25Z" fill="white"/>
</svg>
