<svg width="21" height="17" viewBox="0 0 21 17" fill="none" xmlns="http://www.w3.org/2000/svg">
<path d="M18.8335 4.33332L10.5002 9.54166L2.16683 4.33332V2.24999L10.5002 7.45832L18.8335 2.24999M18.8335 0.166656H2.16683C1.01058 0.166656 0.0834961 1.09374 0.0834961 2.24999V14.75C0.0834961 15.3025 0.302989 15.8324 0.69369 16.2231C1.08439 16.6138 1.6143 16.8333 2.16683 16.8333H18.8335C19.386 16.8333 19.9159 16.6138 20.3066 16.2231C20.6973 15.8324 20.9168 15.3025 20.9168 14.75V2.24999C20.9168 1.69746 20.6973 1.16755 20.3066 0.776851C19.9159 0.38615 19.386 0.166656 18.8335 0.166656Z" fill="#777777"/>
</svg>
