<svg width="45" height="30" viewBox="0 0 45 30" fill="none" xmlns="http://www.w3.org/2000/svg">
<path d="M5 0C2.24219 0 0 2.24219 0 5V25C0 27.7578 2.24219 30 5 30H40C42.7578 30 45 27.7578 45 25V5C45 2.24219 42.7578 0 40 0H5ZM21.25 10H38.75C39.4375 10 40 10.5625 40 11.25C40 11.9375 39.4375 12.5 38.75 12.5H21.25C20.5625 12.5 20 11.9375 20 11.25C20 10.5625 20.5625 10 21.25 10ZM20 18.75C20 18.0625 20.5625 17.5 21.25 17.5H38.75C39.4375 17.5 40 18.0625 40 18.75C40 19.4375 39.4375 20 38.75 20H21.25C20.5625 20 20 19.4375 20 18.75ZM12.8125 6.875V7.96094C13.3984 8.05469 13.9531 8.1875 14.4609 8.32812C15.2969 8.54688 15.7891 9.40625 15.5703 10.2422C15.3516 11.0781 14.4922 11.5703 13.6562 11.3516C12.7969 11.125 11.9688 10.9609 11.2188 10.9453C10.6016 10.9375 9.96875 11.0859 9.53906 11.3359C9.16406 11.5547 9.05469 11.7734 9.05469 12.0625C9.05469 12.2031 9.0625 12.3359 9.46875 12.5859C9.96094 12.8828 10.6797 13.1094 11.6797 13.4062L11.7344 13.4219C12.6094 13.6875 13.7344 14.0234 14.6328 14.5938C15.6406 15.2266 16.5312 16.2578 16.5547 17.8438C16.5781 19.4766 15.7344 20.6641 14.6172 21.3594C14.0547 21.7109 13.4297 21.9297 12.8047 22.0625V23.125C12.8047 23.9844 12.1016 24.6875 11.2422 24.6875C10.3828 24.6875 9.67969 23.9844 9.67969 23.125V21.9844C8.875 21.8125 8.11719 21.5547 7.47656 21.3281C7.3125 21.2734 7.15625 21.2188 7 21.1641C6.17969 20.8906 5.74219 20.0078 6.01562 19.1875C6.28906 18.3672 7.17188 17.9297 7.99219 18.2031C8.1875 18.2656 8.375 18.3359 8.55469 18.3906C9.61719 18.75 10.4297 19.0234 11.2969 19.0547C11.9688 19.0781 12.5859 18.9297 12.9688 18.6875C13.2891 18.4922 13.4375 18.2578 13.4297 17.8672C13.4297 17.6406 13.3672 17.4766 12.9688 17.2266C12.4766 16.9141 11.7656 16.6875 10.7812 16.3906L10.6484 16.3516C9.79688 16.0938 8.72656 15.7734 7.86719 15.2578C6.875 14.6562 5.94531 13.6563 5.9375 12.0781C5.92969 10.4297 6.85938 9.28906 7.95312 8.64844C8.49219 8.32812 9.08594 8.11719 9.6875 7.98438V6.875C9.6875 6.01562 10.3906 5.3125 11.25 5.3125C12.1094 5.3125 12.8125 6.01562 12.8125 6.875Z" fill="#4ACB48"/>
</svg>
