<svg width="21" height="25" viewBox="0 0 21 25" fill="none" xmlns="http://www.w3.org/2000/svg">
<path d="M16.75 8.75V6.25C16.75 2.75 14 0 10.5 0C7 0 4.25 2.75 4.25 6.25V8.75C2.125 8.75 0.5 10.375 0.5 12.5V21.25C0.5 23.375 2.125 25 4.25 25H16.75C18.875 25 20.5 23.375 20.5 21.25V12.5C20.5 10.375 18.875 8.75 16.75 8.75ZM6.75 6.25C6.75 4.125 8.375 2.5 10.5 2.5C12.625 2.5 14.25 4.125 14.25 6.25V8.75H6.75V6.25ZM11.875 16.875L11.75 17V18.75C11.75 19.5 11.25 20 10.5 20C9.75 20 9.25 19.5 9.25 18.75V17C8.5 16.25 8.375 15.125 9.125 14.375C9.875 13.625 11 13.5 11.75 14.25C12.5 14.875 12.625 16.125 11.875 16.875Z" fill="#616161"/>
</svg>
