<svg width="33" height="20" viewBox="0 0 33 20" fill="none" xmlns="http://www.w3.org/2000/svg">
<path d="M30.0695 0.15625H3.58675C2.85511 0.15625 2.15345 0.40318 1.63611 0.842718C1.11876 1.28226 0.828125 1.8784 0.828125 2.5V17.5C0.828125 18.1216 1.11876 18.7177 1.63611 19.1573C2.15345 19.5968 2.85511 19.8438 3.58675 19.8438H30.0695C30.8011 19.8438 31.5028 19.5968 32.0201 19.1573C32.5375 18.7177 32.8281 18.1216 32.8281 17.5V2.5C32.8281 1.8784 32.5375 1.28226 32.0201 0.842718C31.5028 0.40318 30.8011 0.15625 30.0695 0.15625ZM29.5178 2.96875V5.3125H4.13847V2.96875H29.5178ZM4.13847 17.0312V8.125H29.5178V17.0312H4.13847ZM27.8626 14.2188C27.8626 14.5917 27.6882 14.9494 27.3778 15.2131C27.0674 15.4768 26.6464 15.625 26.2074 15.625H21.7936C21.3547 15.625 20.9337 15.4768 20.6233 15.2131C20.3129 14.9494 20.1385 14.5917 20.1385 14.2188C20.1385 13.8458 20.3129 13.4881 20.6233 13.2244C20.9337 12.9607 21.3547 12.8125 21.7936 12.8125H26.2074C26.6464 12.8125 27.0674 12.9607 27.3778 13.2244C27.6882 13.4881 27.8626 13.8458 27.8626 14.2188ZM18.4833 14.2188C18.4833 14.5917 18.3089 14.9494 17.9985 15.2131C17.6881 15.4768 17.2671 15.625 16.8281 15.625H15.173C14.734 15.625 14.313 15.4768 14.0026 15.2131C13.6922 14.9494 13.5178 14.5917 13.5178 14.2188C13.5178 13.8458 13.6922 13.4881 14.0026 13.2244C14.313 12.9607 14.734 12.8125 15.173 12.8125H16.8281C17.2671 12.8125 17.6881 12.9607 17.9985 13.2244C18.3089 13.4881 18.4833 13.8458 18.4833 14.2188Z" fill="white"/>
</svg>
