<svg width="12" height="12" viewBox="0 0 12 12" fill="none" xmlns="http://www.w3.org/2000/svg">
<path id="Vector" fill-rule="evenodd" clip-rule="evenodd" d="M6 0C2.68636 0 0 2.68636 0 6C0 9.31364 2.68636 12 6 12C9.31364 12 12 9.31364 12 6C12 2.68636 9.31364 0 6 0ZM8.022 4.74927C8.12136 4.6464 8.17634 4.50862 8.17509 4.3656C8.17385 4.22258 8.11649 4.08578 8.01536 3.98464C7.91422 3.88351 7.77742 3.82615 7.6344 3.82491C7.49138 3.82366 7.3536 3.87864 7.25073 3.978L6 5.22873L4.74927 3.978C4.69896 3.9259 4.63877 3.88435 4.57222 3.85576C4.50567 3.82718 4.4341 3.81213 4.36167 3.8115C4.28925 3.81087 4.21742 3.82467 4.15039 3.8521C4.08335 3.87952 4.02245 3.92003 3.97124 3.97124C3.92003 4.02245 3.87952 4.08335 3.8521 4.15039C3.82467 4.21742 3.81087 4.28925 3.8115 4.36167C3.81213 4.4341 3.82718 4.50567 3.85576 4.57222C3.88435 4.63877 3.9259 4.69896 3.978 4.74927L5.22873 6L3.978 7.25073C3.9259 7.30104 3.88435 7.36123 3.85576 7.42778C3.82718 7.49433 3.81213 7.5659 3.8115 7.63833C3.81087 7.71075 3.82467 7.78258 3.8521 7.84961C3.87952 7.91665 3.92003 7.97755 3.97124 8.02876C4.02245 8.07998 4.08335 8.12048 4.15039 8.1479C4.21742 8.17533 4.28925 8.18913 4.36167 8.1885C4.4341 8.18787 4.50567 8.17282 4.57222 8.14424C4.63877 8.11565 4.69896 8.0741 4.74927 8.022L6 6.77127L7.25073 8.022C7.3536 8.12136 7.49138 8.17634 7.6344 8.17509C7.77742 8.17385 7.91422 8.11649 8.01536 8.01536C8.11649 7.91422 8.17385 7.77742 8.17509 7.6344C8.17634 7.49138 8.12136 7.3536 8.022 7.25073L6.77127 6L8.022 4.74927Z" fill="#616161"/>
</svg>
