<svg width="81" height="50" viewBox="0 0 81 50" fill="none" xmlns="http://www.w3.org/2000/svg">
<path opacity="0.16" d="M4.04993 3.125L34.7732 26.8313C36.2922 28.0029 38.3521 28.6612 40.4999 28.6612C42.6478 28.6612 44.7077 28.0029 46.2266 26.8313L76.9499 3.125V40.625C76.9499 42.2826 76.0965 43.8723 74.5775 45.0444C73.0584 46.2165 70.9982 46.875 68.8499 46.875H12.1499C10.0017 46.875 7.94141 46.2165 6.42236 45.0444C4.90332 43.8723 4.04993 42.2826 4.04993 40.625V3.125Z" fill="#EC1C24"/>
<path d="M4.05 3.125V0C2.97587 0 1.94574 0.329241 1.18622 0.915292C0.426695 1.50134 0 2.2962 0 3.125H4.05ZM76.95 3.125H81C81 2.2962 80.5733 1.50134 79.8138 0.915292C79.0543 0.329241 78.0241 0 76.95 0V3.125ZM4.05 6.25H76.95V0H4.05V6.25ZM72.9 3.125V40.625H81V3.125H72.9ZM68.85 43.75H12.15V50H68.85V43.75ZM8.1 40.625V3.125H0V40.625H8.1ZM12.15 43.75C11.0759 43.75 10.0457 43.4208 9.28622 42.8347C8.5267 42.2487 8.1 41.4538 8.1 40.625H0C0 43.1114 1.28009 45.496 3.55865 47.2541C5.83722 49.0123 8.92762 50 12.15 50V43.75ZM72.9 40.625C72.9 41.4538 72.4733 42.2487 71.7138 42.8347C70.9543 43.4208 69.9241 43.75 68.85 43.75V50C72.0724 50 75.1628 49.0123 77.4414 47.2541C79.7199 45.496 81 43.1114 81 40.625H72.9Z" fill="#EC1C24"/>
<path d="M4.04993 3.125L40.4999 31.25L76.9499 3.125" fill="#EC1C24"/>
<path d="M4.04993 3.125L40.4999 31.25L76.9499 3.125" stroke="black" stroke-width="2" stroke-linecap="round" stroke-linejoin="round"/>
</svg>
