<svg width="25" height="25" viewBox="0 0 25 25" fill="none" xmlns="http://www.w3.org/2000/svg">
<g id="material-symbols:gesture-select-sharp">
<path id="Vector" d="M1.0415 12.5V10.4167H3.12484V12.5H1.0415ZM21.8748 12.5V10.4167H23.9582V12.5H21.8748ZM1.0415 8.33337V6.25004H3.12484V8.33337H1.0415ZM21.8748 8.33337V6.25004H23.9582V8.33337H21.8748ZM1.0415 4.16671V2.08337H3.12484V4.16671H1.0415ZM5.20817 12.5V10.4167H7.2915V12.5H5.20817ZM17.7082 12.5V10.4167H19.7915V12.5H17.7082ZM21.8748 4.16671V2.08337H23.9582V4.16671H21.8748ZM5.20817 4.16671V2.08337H7.2915V4.16671H5.20817ZM9.37484 4.16671V2.08337H11.4582V4.16671H9.37484ZM13.5415 4.16671V2.08337H15.6248V4.16671H13.5415ZM17.7082 4.16671V2.08337H19.7915V4.16671H17.7082ZM12.3175 23.9584C11.9009 23.9584 11.5016 23.8802 11.1196 23.724C10.7377 23.5677 10.3991 23.3421 10.104 23.0469L4.7915 17.7084L6.45817 16.0157L9.37484 16.849V7.29171H11.4582V15.625H12.4998V11.4584H14.5832V15.625H15.6248V12.5H17.7082V15.625H18.7498V14.5834H20.8332V19.7917C20.8332 20.9375 20.4252 21.9184 19.6092 22.7344C18.7932 23.5504 17.8123 23.9584 16.6665 23.9584H12.3175Z" fill="#EC1C24"/>
</g>
</svg>
