<svg width="34" height="28" viewBox="0 0 34 28" fill="none" xmlns="http://www.w3.org/2000/svg">
<path d="M30.3334 24.0001H27V9.41675L17 15.6667L7.00004 9.41675V24.0001H3.66671V4.00008H5.66671L17 11.0834L28.3334 4.00008H30.3334M30.3334 0.666748H3.66671C1.81671 0.666748 0.333374 2.15008 0.333374 4.00008V24.0001C0.333374 24.8841 0.684563 25.732 1.30968 26.3571C1.93481 26.9822 2.78265 27.3334 3.66671 27.3334H30.3334C31.2174 27.3334 32.0653 26.9822 32.6904 26.3571C33.3155 25.732 33.6667 24.8841 33.6667 24.0001V4.00008C33.6667 3.11603 33.3155 2.26818 32.6904 1.64306C32.0653 1.01794 31.2174 0.666748 30.3334 0.666748Z" fill="#EC1C24"/>
</svg>
