<svg width="21" height="20" viewBox="0 0 21 20" fill="none" xmlns="http://www.w3.org/2000/svg">
<g id="material-symbols:check-circle-rounded">
<path id="Vector" d="M9.33317 11.5L7.5415 9.70835C7.38873 9.55558 7.19428 9.47919 6.95817 9.47919C6.72206 9.47919 6.52762 9.55558 6.37484 9.70835C6.22206 9.86113 6.14567 10.0556 6.14567 10.2917C6.14567 10.5278 6.22206 10.7222 6.37484 10.875L8.74984 13.25C8.9165 13.4167 9.11095 13.5 9.33317 13.5C9.55539 13.5 9.74984 13.4167 9.9165 13.25L14.6248 8.54169C14.7776 8.38891 14.854 8.19446 14.854 7.95835C14.854 7.72224 14.7776 7.5278 14.6248 7.37502C14.4721 7.22224 14.2776 7.14585 14.0415 7.14585C13.8054 7.14585 13.6109 7.22224 13.4582 7.37502L9.33317 11.5ZM10.4998 18.3334C9.34706 18.3334 8.26373 18.1145 7.24984 17.6767C6.23595 17.2389 5.354 16.6453 4.604 15.8959C3.854 15.1459 3.26039 14.2639 2.82317 13.25C2.38595 12.2361 2.16706 11.1528 2.1665 10C2.1665 8.84724 2.38539 7.76391 2.82317 6.75002C3.26095 5.73613 3.85456 4.85419 4.604 4.10419C5.354 3.35419 6.23595 2.76058 7.24984 2.32335C8.26373 1.88613 9.34706 1.66724 10.4998 1.66669C11.6526 1.66669 12.7359 1.88558 13.7498 2.32335C14.7637 2.76113 15.6457 3.35474 16.3957 4.10419C17.1457 4.85419 17.7396 5.73613 18.1773 6.75002C18.6151 7.76391 18.8337 8.84724 18.8332 10C18.8332 11.1528 18.6143 12.2361 18.1765 13.25C17.7387 14.2639 17.1451 15.1459 16.3957 15.8959C15.6457 16.6459 14.7637 17.2397 13.7498 17.6775C12.7359 18.1153 11.6526 18.3339 10.4998 18.3334Z" fill="#4ECB71"/>
</g>
</svg>
