<svg width="20" height="21" viewBox="0 0 20 21" fill="none" xmlns="http://www.w3.org/2000/svg">
<path d="M6.66663 14.6914H13.3333C13.5694 14.6914 13.7675 14.6116 13.9275 14.452C14.0875 14.2924 14.1672 14.0951 14.1666 13.8601C14.1666 13.6246 14.0866 13.4271 13.9266 13.2675C13.7666 13.1079 13.5688 13.0283 13.3333 13.0289H6.66663C6.43051 13.0289 6.23246 13.1087 6.07246 13.2683C5.91246 13.4279 5.83274 13.6252 5.83329 13.8601C5.83329 14.0957 5.91329 14.2932 6.07329 14.4528C6.23329 14.6124 6.43107 14.6919 6.66663 14.6914ZM9.16663 8.99738L8.41663 8.27005C8.26385 8.11766 8.07274 8.04146 7.84329 8.04146C7.61385 8.04146 7.41607 8.12458 7.24996 8.29083C7.09718 8.44322 7.02079 8.63718 7.02079 8.8727C7.02079 9.10822 7.09718 9.30217 7.24996 9.45457L9.41663 11.6158C9.58329 11.782 9.77774 11.8652 9.99996 11.8652C10.2222 11.8652 10.4166 11.782 10.5833 11.6158L12.75 9.45457C12.9027 9.30217 12.9825 9.11154 12.9891 8.88267C12.9958 8.65381 12.9161 8.45652 12.75 8.29083C12.5972 8.13844 12.4061 8.05864 12.1766 8.05143C11.9472 8.04423 11.7494 8.1171 11.5833 8.27005L10.8333 8.99738V6.37898C10.8333 6.14346 10.7533 5.9459 10.5933 5.78631C10.4333 5.62671 10.2355 5.54719 9.99996 5.54774C9.76385 5.54774 9.56579 5.62754 9.40579 5.78714C9.24579 5.94674 9.16607 6.14402 9.16663 6.37898V8.99738ZM9.99996 18.8476C8.84718 18.8476 7.76385 18.6292 6.74996 18.1926C5.73607 17.7559 4.85413 17.1638 4.10413 16.4162C3.35413 15.6681 2.76051 14.7884 2.32329 13.777C1.88607 12.7657 1.66718 11.6851 1.66663 10.5352C1.66663 9.3853 1.88551 8.30468 2.32329 7.29334C2.76107 6.282 3.35468 5.40227 4.10413 4.65416C4.85413 3.90604 5.73607 3.31392 6.74996 2.8778C7.76385 2.44168 8.84718 2.22334 9.99996 2.22278C11.1527 2.22278 12.2361 2.44112 13.25 2.8778C14.2638 3.31448 15.1458 3.9066 15.8958 4.65416C16.6458 5.40227 17.2397 6.282 17.6775 7.29334C18.1152 8.30468 18.3338 9.3853 18.3333 10.5352C18.3333 11.6851 18.1144 12.7657 17.6766 13.777C17.2388 14.7884 16.6452 15.6681 15.8958 16.4162C15.1458 17.1643 14.2638 17.7567 13.25 18.1934C12.2361 18.6301 11.1527 18.8481 9.99996 18.8476Z" fill="#4ACB48"/>
</svg>
