<svg width="25" height="25" viewBox="0 0 25 25" fill="none" xmlns="http://www.w3.org/2000/svg">
<path d="M20.8335 8.33329L12.5002 13.5416L4.16683 8.33329V6.24996L12.5002 11.4583L20.8335 6.24996M20.8335 4.16663H4.16683C3.01058 4.16663 2.0835 5.09371 2.0835 6.24996V18.75C2.0835 19.3025 2.30299 19.8324 2.69369 20.2231C3.08439 20.6138 3.6143 20.8333 4.16683 20.8333H20.8335C21.386 20.8333 21.9159 20.6138 22.3066 20.2231C22.6973 19.8324 22.9168 19.3025 22.9168 18.75V6.24996C22.9168 5.69742 22.6973 5.16752 22.3066 4.77682C21.9159 4.38612 21.386 4.16663 20.8335 4.16663Z" fill="#777777"/>
</svg>
