<svg width="30" height="24" viewBox="0 0 30 24" fill="none" xmlns="http://www.w3.org/2000/svg">
<path d="M2.5 23.25C1.8125 23.25 1.22375 23.005 0.733752 22.515C0.243752 22.025 -0.000831211 21.4367 2.12224e-06 20.75V3.25C2.12224e-06 2.5625 0.245002 1.97375 0.735002 1.48375C1.225 0.993752 1.81334 0.749169 2.5 0.750002H27.5C28.1875 0.750002 28.7763 0.995002 29.2663 1.485C29.7563 1.975 30.0008 2.56334 30 3.25V20.75C30 21.4375 29.755 22.0263 29.265 22.5163C28.775 23.0063 28.1867 23.2508 27.5 23.25H2.5ZM11.25 14.5C12.2917 14.5 13.1771 14.1354 13.9063 13.4063C14.6354 12.6771 15 11.7917 15 10.75C15 9.70834 14.6354 8.82292 13.9063 8.09375C13.1771 7.36459 12.2917 7 11.25 7C10.2083 7 9.32292 7.36459 8.59375 8.09375C7.86459 8.82292 7.5 9.70834 7.5 10.75C7.5 11.7917 7.86459 12.6771 8.59375 13.4063C9.32292 14.1354 10.2083 14.5 11.25 14.5ZM22.8438 18.7188C23.0729 18.9479 23.3646 19.0521 23.7188 19.0313C24.0729 19.0104 24.3646 18.8854 24.5938 18.6563L25.4688 17.7813C25.6979 17.5521 25.8229 17.2813 25.8438 16.9688C25.8646 16.6563 25.7813 16.375 25.5938 16.125L24.75 15C24.6458 14.8333 24.505 14.7083 24.3275 14.625C24.15 14.5417 23.9575 14.5 23.75 14.5H22.3125C22.1875 14.125 22.0833 13.7238 22 13.2963C21.9167 12.8688 21.875 12.4367 21.875 12C21.875 11.5625 21.9167 11.1404 22 10.7338C22.0833 10.3271 22.1875 9.91584 22.3125 9.5H23.75C23.9583 9.5 24.1513 9.45833 24.3288 9.375C24.5063 9.29167 24.6467 9.16667 24.75 9L25.5938 7.875C25.7813 7.625 25.8646 7.34375 25.8438 7.03125C25.8229 6.71875 25.6979 6.44792 25.4688 6.21875L24.5938 5.34375C24.3646 5.11459 24.0729 4.98959 23.7188 4.96875C23.3646 4.94792 23.0729 5.05209 22.8438 5.28125C21.9688 6.15625 21.2758 7.18209 20.765 8.35875C20.2542 9.53542 19.9992 10.7492 20 12C20 13.25 20.2554 14.4638 20.7663 15.6413C21.2771 16.8188 21.9696 17.8446 22.8438 18.7188ZM2.625 20.75H19.875C19 19.1875 17.7917 17.9633 16.25 17.0775C14.7083 16.1917 13.0417 15.7492 11.25 15.75C9.45834 15.75 7.79167 16.1929 6.25 17.0788C4.70834 17.9646 3.5 19.1883 2.625 20.75Z" fill="#F8F8F8"/>
</svg>
