<svg width="25" height="27" viewBox="0 0 25 27" fill="none" xmlns="http://www.w3.org/2000/svg">
<path d="M16.375 12C19.5 12 22 14.5 22 17.625C22 18.725 21.6875 19.7625 21.1375 20.625L24.9875 24.5L23.25 26.2375L19.35 22.4C18.4875 22.9375 17.4625 23.25 16.375 23.25C13.25 23.25 10.75 20.75 10.75 17.625C10.75 14.5 13.25 12 16.375 12ZM16.375 14.5C15.5462 14.5 14.7513 14.8292 14.1653 15.4153C13.5792 16.0013 13.25 16.7962 13.25 17.625C13.25 18.4538 13.5792 19.2487 14.1653 19.8347C14.7513 20.4208 15.5462 20.75 16.375 20.75C17.2038 20.75 17.9987 20.4208 18.5847 19.8347C19.1708 19.2487 19.5 18.4538 19.5 17.625C19.5 16.7962 19.1708 16.0013 18.5847 15.4153C17.9987 14.8292 17.2038 14.5 16.375 14.5ZM5.75 15.75V18.25H8.25C8.425 20.1875 9.25 21.925 10.5125 23.25H3.25C2.58696 23.25 1.95107 22.9866 1.48223 22.5178C1.01339 22.0489 0.75 21.413 0.75 20.75V3.25C0.75 1.8625 1.8625 0.75 3.25 0.75H20.75C21.413 0.75 22.0489 1.01339 22.5178 1.48223C22.9866 1.95107 23.25 2.58696 23.25 3.25V13.2875C22.5179 12.1262 21.5033 11.1696 20.3009 10.5072C19.0985 9.84483 17.7478 9.49828 16.375 9.5C14.7875 9.5 13.3 9.9625 12.05 10.75H5.75V13.25H9.5C9.05 14 8.675 14.85 8.4625 15.75H5.75ZM18.25 8.25V5.75H5.75V8.25H18.25Z" fill="#F8F8F8"/>
</svg>
