<svg width="40" height="35" viewBox="0 0 40 35" fill="none" xmlns="http://www.w3.org/2000/svg">
<path d="M33.3333 31.8167L37.4167 34.3L36.3333 29.6167L40 26.4833L35.1833 26.0667L33.3333 21.6667L31.45 26.0667L26.6667 26.4833L30.3 29.6167L29.1667 34.3L33.3333 31.8167ZM23.4667 30H3.33333C2.45904 29.9693 1.6289 29.6083 1.01031 28.9897C0.391712 28.3711 0.0306757 27.541 0 26.6667L0 3.33333C0.0666667 1.51667 1.51667 0.0666667 3.33333 0H36.6667C38.4833 0.0666667 39.9333 1.51667 40 3.33333V20.8833C39.0333 20 37.9167 19.35 36.6667 18.9V3.33333H3.33333V26.6667H23.4667C23.3833 27.2167 23.3333 27.7667 23.3333 28.3333C23.3333 28.9 23.3833 29.4667 23.4667 30ZM23.3333 23.3333H6.66667V21.25C6.66667 18.4833 12.2333 17.0833 15 17.0833C17.7667 17.0833 23.3333 18.4833 23.3333 21.25V23.3333ZM23.3333 13.3333H30V15H23.3333V13.3333ZM15 6.66667C12.7167 6.66667 10.8333 8.55 10.8333 10.8333C10.8333 13.1167 12.7167 15 15 15C17.2833 15 19.1667 13.1167 19.1667 10.8333C19.1667 8.55 17.2833 6.66667 15 6.66667ZM23.3333 10H33.3333V11.6667H23.3333V10ZM23.3333 6.66667H33.3333V8.33333H23.3333V6.66667Z" fill="#EC1C24"/>
</svg>
