<svg width="38" height="38" viewBox="0 0 38 38" fill="none" xmlns="http://www.w3.org/2000/svg">
<path d="M7.11112 29.4167C7.11112 25.25 15.3122 22.9583 19.4127 22.9583C23.5132 22.9583 31.7143 25.25 31.7143 29.4167V31.5H7.11112M25.5635 12.75C25.5635 14.4076 24.9155 15.9973 23.762 17.1694C22.6085 18.3415 21.044 19 19.4127 19C17.7814 19 16.2169 18.3415 15.0634 17.1694C13.9099 15.9973 13.2619 14.4076 13.2619 12.75C13.2619 11.0924 13.9099 9.50268 15.0634 8.33058C16.2169 7.15848 17.7814 6.5 19.4127 6.5C21.044 6.5 22.6085 7.15848 23.762 8.33058C24.9155 9.50268 25.5635 11.0924 25.5635 12.75ZM0.960327 4.41667V33.5833C0.960327 34.6884 1.39235 35.7482 2.16134 36.5296C2.93034 37.311 3.97333 37.75 5.06086 37.75H33.7646C34.8521 37.75 35.8951 37.311 36.6641 36.5296C37.4331 35.7482 37.8651 34.6884 37.8651 33.5833V4.41667C37.8651 3.3116 37.4331 2.25179 36.6641 1.47039C35.8951 0.688987 34.8521 0.25 33.7646 0.25H5.06086C3.97333 0.25 2.93034 0.688987 2.16134 1.47039C1.39235 2.25179 0.960327 3.3116 0.960327 4.41667Z" fill="#8A8A8A"/>
</svg>
