<svg width="14" height="14" viewBox="0 0 14 14" fill="none" xmlns="http://www.w3.org/2000/svg">
<path d="M6.08128 10.4187C6.16906 10.5066 6.21836 10.6258 6.21836 10.75C6.21836 10.8742 6.16906 10.9934 6.08128 11.0813L3.58128 13.5813C3.49338 13.669 3.37424 13.7183 3.25003 13.7183C3.12581 13.7183 3.00667 13.669 2.91878 13.5813L0.418776 11.0813C0.335976 10.9924 0.290899 10.8749 0.293042 10.7534C0.295184 10.632 0.344379 10.5161 0.430262 10.4302C0.516146 10.3444 0.632011 10.2952 0.753449 10.293C0.874888 10.2909 0.992417 10.3359 1.08128 10.4187L2.78128 12.118V0.75C2.78128 0.62568 2.83066 0.506451 2.91857 0.418544C3.00648 0.330636 3.12571 0.28125 3.25003 0.28125C3.37435 0.28125 3.49357 0.330636 3.58148 0.418544C3.66939 0.506451 3.71878 0.62568 3.71878 0.75V12.118L5.41878 10.4187C5.50667 10.331 5.62581 10.2817 5.75003 10.2817C5.87424 10.2817 5.99338 10.331 6.08128 10.4187ZM13.5813 2.91875L11.0813 0.41875C10.9934 0.330968 10.8742 0.281662 10.75 0.281662C10.6258 0.281662 10.5067 0.330968 10.4188 0.41875L7.91878 2.91875C7.83598 3.00761 7.7909 3.12514 7.79304 3.24658C7.79518 3.36801 7.84438 3.48388 7.93026 3.56976C8.01615 3.65565 8.13201 3.70484 8.25345 3.70698C8.37489 3.70913 8.49242 3.66405 8.58128 3.58125L10.2813 1.88203V13.25C10.2813 13.3743 10.3307 13.4935 10.4186 13.5815C10.5065 13.6694 10.6257 13.7188 10.75 13.7188C10.8743 13.7188 10.9936 13.6694 11.0815 13.5815C11.1694 13.4935 11.2188 13.3743 11.2188 13.25V1.88203L12.9188 3.58125C13.0076 3.66405 13.1252 3.70913 13.2466 3.70698C13.368 3.70484 13.4839 3.65565 13.5698 3.56976C13.6557 3.48388 13.7049 3.36801 13.707 3.24658C13.7092 3.12514 13.6641 3.00761 13.5813 2.91875Z" fill="#777777"/>
</svg>
