<svg width="29" height="34" viewBox="0 0 29 34" fill="none" xmlns="http://www.w3.org/2000/svg">
<path d="M28.1741 29.2833L21.5969 27L19.3334 33.6667L14.2815 23.6667L9.49211 33.6667L7.22862 27L0.651367 29.2833L5.44079 19.2833C3.81196 17.2171 2.92657 14.6474 2.93126 12C2.93126 8.90581 4.14091 5.93835 6.29411 3.75042C8.4473 1.5625 11.3677 0.333336 14.4127 0.333336C17.4578 0.333336 20.3782 1.5625 22.5314 3.75042C24.6846 5.93835 25.8942 8.90581 25.8942 12C25.8942 14.75 24.9593 17.2833 23.3847 19.2833L28.1741 29.2833ZM6.21168 12L10.6239 14.2333L10.3122 19.2333L14.4127 16.4667L18.5133 19.2167L18.2344 14.2333L22.6138 12L18.218 9.75L18.5133 4.78334L14.4127 7.51667L10.3122 4.75L10.591 9.76667L6.21168 12Z" fill="#EC1C24"/>
</svg>
