<svg width="26" height="26" viewBox="0 0 26 26" fill="none" xmlns="http://www.w3.org/2000/svg">
<path d="M12.75 14.25H16.75C17.1042 14.25 17.4013 14.13 17.6413 13.89C17.8813 13.65 18.0008 13.3533 18 13C18 12.6458 17.88 12.3487 17.64 12.1087C17.4 11.8687 17.1033 11.7492 16.75 11.75H12.75L13.875 10.625C14.1042 10.3958 14.2188 10.1042 14.2188 9.75C14.2188 9.39583 14.1042 9.10417 13.875 8.875C13.6458 8.64583 13.3542 8.53125 13 8.53125C12.6458 8.53125 12.3542 8.64583 12.125 8.875L8.875 12.125C8.625 12.375 8.5 12.6667 8.5 13C8.5 13.3333 8.625 13.625 8.875 13.875L12.125 17.125C12.3542 17.3542 12.6458 17.4688 13 17.4688C13.3542 17.4688 13.6458 17.3542 13.875 17.125C14.1042 16.8958 14.2188 16.6042 14.2188 16.25C14.2188 15.8958 14.1042 15.6042 13.875 15.375L12.75 14.25ZM13 25.5C11.2708 25.5 9.64583 25.1717 8.125 24.515C6.60417 23.8583 5.28125 22.9679 4.15625 21.8438C3.03125 20.7188 2.14083 19.3958 1.485 17.875C0.829167 16.3542 0.500833 14.7292 0.5 13C0.5 11.2708 0.828333 9.64583 1.485 8.125C2.14167 6.60417 3.03208 5.28125 4.15625 4.15625C5.28125 3.03125 6.60417 2.14083 8.125 1.485C9.64583 0.829167 11.2708 0.500833 13 0.5C14.7292 0.5 16.3542 0.828333 17.875 1.485C19.3958 2.14167 20.7188 3.03208 21.8438 4.15625C22.9688 5.28125 23.8596 6.60417 24.5162 8.125C25.1729 9.64583 25.5008 11.2708 25.5 13C25.5 14.7292 25.1717 16.3542 24.515 17.875C23.8583 19.3958 22.9679 20.7188 21.8438 21.8438C20.7188 22.9688 19.3958 23.8596 17.875 24.5162C16.3542 25.1729 14.7292 25.5008 13 25.5ZM13 23C15.7917 23 18.1562 22.0312 20.0938 20.0938C22.0312 18.1562 23 15.7917 23 13C23 10.2083 22.0312 7.84375 20.0938 5.90625C18.1562 3.96875 15.7917 3 13 3C10.2083 3 7.84375 3.96875 5.90625 5.90625C3.96875 7.84375 3 10.2083 3 13C3 15.7917 3.96875 18.1562 5.90625 20.0938C7.84375 22.0312 10.2083 23 13 23Z" fill="#777777"/>
</svg>
