<svg width="30" height="31" viewBox="0 0 30 31" fill="none" xmlns="http://www.w3.org/2000/svg">
<path d="M26.6667 15.9167C26.6667 12.6667 25.5344 9.91008 23.27 7.64675C21.0056 5.38341 18.2489 4.25119 15 4.25008V0.916748C17.0833 0.916748 19.035 1.31286 20.855 2.10508C22.675 2.8973 24.2583 3.96675 25.605 5.31341C26.9517 6.66008 28.0211 8.24341 28.8133 10.0634C29.6056 11.8834 30.0011 13.8345 30 15.9167H26.6667ZM20 15.9167C20 14.5279 19.5139 13.3473 18.5417 12.3751C17.5694 11.4029 16.3889 10.9167 15 10.9167V7.58341C17.3056 7.58341 19.2711 8.39619 20.8967 10.0217C22.5222 11.6473 23.3344 13.6123 23.3333 15.9167H20ZM28.25 31.0001C24.6667 31.0001 21.1733 30.2012 17.77 28.6034C14.3667 27.0056 11.3528 24.8945 8.72834 22.2701C6.10389 19.6456 3.99278 16.6317 2.395 13.2284C0.797223 9.82508 -0.00110995 6.3323 1.15821e-06 2.75008C1.15821e-06 2.25008 0.166668 1.83341 0.500001 1.50008C0.833334 1.16675 1.25 1.00008 1.75 1.00008H8.5C8.88889 1.00008 9.23611 1.12508 9.54167 1.37508C9.84722 1.62508 10.0278 1.94453 10.0833 2.33341L11.1667 8.16675C11.2222 8.55564 11.215 8.91008 11.145 9.23008C11.075 9.55008 10.9156 9.83453 10.6667 10.0834L6.66667 14.1667C7.83333 16.1667 9.29167 18.0417 11.0417 19.7917C12.7917 21.5417 14.7222 23.0556 16.8333 24.3334L20.75 20.4167C21 20.1667 21.3267 19.9795 21.73 19.8551C22.1333 19.7306 22.5289 19.6956 22.9167 19.7501L28.6667 20.9167C29.0556 21.0001 29.375 21.1879 29.625 21.4801C29.875 21.7723 30 22.1123 30 22.5001V29.2501C30 29.7501 29.8333 30.1667 29.5 30.5001C29.1667 30.8334 28.75 31.0001 28.25 31.0001Z" fill="#699BF7"/>
</svg>
