<svg width="15" height="23" viewBox="0 0 15 23" fill="none" xmlns="http://www.w3.org/2000/svg">
<path d="M5.93766 19.8333H9.06266C9.20155 19.8333 9.32308 19.7812 9.42725 19.677C9.53142 19.5729 9.5835 19.4513 9.5835 19.3125C9.5835 19.1736 9.53142 19.052 9.42725 18.9479C9.32308 18.8437 9.20155 18.7916 9.06266 18.7916H5.93766C5.79878 18.7916 5.67725 18.8437 5.57308 18.9479C5.46891 19.052 5.41683 19.1736 5.41683 19.3125C5.41683 19.4513 5.46891 19.5729 5.57308 19.677C5.67725 19.7812 5.79878 19.8333 5.93766 19.8333ZM2.29183 22.9583C1.71891 22.9583 1.22829 22.7541 0.819956 22.3458C0.411623 21.9375 0.207803 21.4472 0.208498 20.875V2.12496C0.208498 1.55204 0.412664 1.06142 0.820998 0.653086C1.22933 0.244753 1.71961 0.0409333 2.29183 0.0416277H12.7085C13.2814 0.0416277 13.772 0.245794 14.1804 0.654128C14.5887 1.06246 14.7925 1.55274 14.7918 2.12496V20.875C14.7918 21.4479 14.5877 21.9385 14.1793 22.3468C13.771 22.7552 13.2807 22.959 12.7085 22.9583H2.29183ZM2.29183 15.6666H12.7085V5.24996H2.29183V15.6666Z" fill="#777777"/>
</svg>
