<svg width="70" height="70" viewBox="0 0 70 70" fill="none" xmlns="http://www.w3.org/2000/svg">
<path d="M5.44571 51.7851L5.39058 51.9863L0.712881 69.0652L18.2082 64.478L18.4002 64.4277L18.5744 64.5226C23.5522 67.2367 29.1573 68.6679 34.861 68.67C34.8611 68.67 34.8611 68.67 34.8612 68.67H34.8759C53.6594 68.67 68.9512 53.3831 68.9592 34.5977C68.9624 25.4925 65.4206 16.9329 58.9854 10.492C52.5494 4.05205 43.9945 0.503797 34.8759 0.5L5.44571 51.7851ZM5.44571 51.7851L5.34138 51.6043M5.44571 51.7851L5.34138 51.6043M5.34138 51.6043C2.35916 46.4377 0.790269 40.5759 0.792141 34.5704M5.34138 51.6043L0.792141 34.5704M0.792141 34.5704C0.799628 15.7848 16.0891 0.500112 34.8757 0.5L0.792141 34.5704ZM10.6695 51.0315L7.82301 61.4226L7.59415 62.258L8.43205 62.0383L19.1092 59.239L19.9794 59.755C19.9794 59.755 19.9795 59.755 19.9795 59.7551C24.4692 62.419 29.6166 63.8283 34.8643 63.831H34.8645H34.8759C50.9949 63.831 64.113 50.7155 64.1202 34.596C64.1221 26.7845 61.0831 19.4376 55.5622 13.9125L55.5622 13.9124C50.041 8.388 42.6979 5.34207 34.887 5.33876H34.8868C18.7556 5.33876 5.63752 18.4524 5.63117 34.5722C5.62896 40.0953 7.17414 45.4752 10.1022 50.1309L10.1024 50.1312L10.6695 51.0315Z" fill="url(#paint0_linear_183_2598)" stroke="#E1E1E1"/>
<defs>
<linearGradient id="paint0_linear_183_2598" x1="3472.87" y1="6976.86" x2="3472.87" y2="0" gradientUnits="userSpaceOnUse">
<stop stop-color="#F9F9F9"/>
<stop offset="1" stop-color="white"/>
</linearGradient>
</defs>
</svg>
